<svg width="30" height="30" viewBox="0 0 30 30" fill="none" xmlns="http://www.w3.org/2000/svg">
<path fill-rule="evenodd" clip-rule="evenodd" d="M12.2765 4.52773C13.277 3.16903 14.9291 2.2258 17.3973 2.2258H17.4012L21.1337 2.24038C21.7946 2.24295 22.329 2.77946 22.329 3.44037V7.42158C22.329 8.07702 21.8001 8.62158 21.1301 8.62158H18.4742C18.438 8.62158 18.406 8.62643 18.3835 8.63302C18.3811 8.63374 18.3789 8.63444 18.3769 8.63509C18.3684 8.65687 18.3486 8.72109 18.3486 8.8503V10.5035H21.1725C21.8837 10.5035 22.4388 11.1185 22.3663 11.826L21.9443 15.9398C21.8815 16.5519 21.3659 17.0173 20.7505 17.0173H18.3486V28.5922C18.3486 29.2705 17.7957 29.7898 17.1486 29.7898H12.2395C11.5934 29.7898 11.0395 29.2716 11.0395 28.5923V17.0173H9.71538C9.05264 17.0173 8.51538 16.4801 8.51538 15.8173V11.7035C8.51538 11.0408 9.05264 10.5035 9.71538 10.5035H11.0395V8.5836C11.0395 7.40822 11.3143 5.83442 12.2765 4.52773ZM13.8869 5.71363C13.2614 6.56316 13.0395 7.66826 13.0395 8.5836V12.5035H10.5154V15.0173H13.0395V27.7898H16.3486V15.0173H20.0284L20.2863 12.5035H16.3486V8.8503C16.3486 8.11163 16.6059 7.49556 17.1038 7.08829C17.5636 6.71214 18.0987 6.62158 18.4742 6.62158H20.329V4.23725L17.3973 4.2258C17.3967 4.2258 17.396 4.2258 17.3954 4.2258C15.5003 4.22626 14.474 4.91637 13.8869 5.71363Z" fill="white"/>
</svg>
