<svg width="15" height="15" viewBox="0 0 15 15" fill="none" xmlns="http://www.w3.org/2000/svg">
<path fill-rule="evenodd" clip-rule="evenodd" d="M7.05553 3.12097C6.93575 3.22211 6.91995 3.2906 6.91995 3.31992C6.91995 3.34925 6.93575 3.41773 7.05553 3.51888C7.17392 3.61884 7.36303 3.72238 7.62296 3.81522C8.14021 3.99995 8.87451 4.11992 9.69995 4.11992C10.5254 4.11992 11.2597 3.99995 11.7769 3.81522C12.0369 3.72238 12.226 3.61884 12.3444 3.51888C12.4641 3.41773 12.4799 3.34925 12.4799 3.31992C12.4799 3.2906 12.4641 3.22211 12.3444 3.12097C12.226 3.021 12.0369 2.91746 11.7769 2.82463C11.2597 2.6399 10.5254 2.51992 9.69995 2.51992C8.87451 2.51992 8.14021 2.6399 7.62296 2.82463C7.36303 2.91746 7.17392 3.021 7.05553 3.12097ZM7.42116 2.25958C8.01865 2.04619 8.82435 1.91992 9.69995 1.91992C10.5755 1.91992 11.3812 2.04619 11.9787 2.25958C12.2762 2.36581 12.5381 2.4993 12.7315 2.66254C12.9234 2.8246 13.0799 3.04549 13.0799 3.31992C13.0799 3.59435 12.9234 3.81525 12.7315 3.97731C12.5381 4.14055 12.2762 4.27403 11.9787 4.38026C11.3812 4.59365 10.5755 4.71992 9.69995 4.71992C8.82435 4.71992 8.01865 4.59365 7.42116 4.38026C7.12372 4.27403 6.86176 4.14055 6.66844 3.97731C6.47651 3.81525 6.31995 3.59435 6.31995 3.31992C6.31995 3.04549 6.47651 2.8246 6.66844 2.66254C6.86176 2.4993 7.12372 2.36581 7.42116 2.25958Z" fill="white"/>
<path fill-rule="evenodd" clip-rule="evenodd" d="M6.61995 3.23999C6.78563 3.23999 6.91995 3.3743 6.91995 3.53999V4.85999C6.91995 4.88932 6.93575 4.95779 7.05549 5.05892C7.17385 5.15888 7.36291 5.26242 7.62281 5.35526C8.13999 5.53999 8.87428 5.65999 9.69995 5.65999C10.5256 5.65999 11.2599 5.53999 11.7771 5.35526C12.037 5.26242 12.226 5.15888 12.3444 5.05892C12.4641 4.95779 12.4799 4.88932 12.4799 4.85999V3.53999C12.4799 3.3743 12.6143 3.23999 12.7799 3.23999C12.9456 3.23999 13.0799 3.3743 13.0799 3.53999V4.85999C13.0799 5.13438 12.9234 5.35525 12.7315 5.51732C12.5382 5.68056 12.2763 5.81405 11.9789 5.92029C11.3815 6.1337 10.5758 6.25999 9.69995 6.25999C8.82413 6.25999 8.01842 6.1337 7.42098 5.92029C7.12356 5.81405 6.86165 5.68056 6.66836 5.51732C6.47646 5.35525 6.31995 5.13438 6.31995 4.85999V3.53999C6.31995 3.3743 6.45426 3.23999 6.61995 3.23999Z" fill="white"/>
<path fill-rule="evenodd" clip-rule="evenodd" d="M12.78 4.77991C12.9457 4.77991 13.08 4.91422 13.08 5.07991V6.39991C13.08 6.67429 12.9235 6.89517 12.7316 7.05724C12.5383 7.22047 12.2764 7.35397 11.979 7.46021C11.3815 7.67361 10.5758 7.79991 9.70001 7.79991C9.17139 7.79991 8.67032 7.75382 8.2263 7.67146C8.06339 7.64124 7.95582 7.48468 7.98604 7.32177C8.01626 7.15887 8.17282 7.0513 8.33572 7.08152C8.7409 7.15668 9.20519 7.19991 9.70001 7.19991C10.5257 7.19991 11.26 7.07991 11.7772 6.89517C12.037 6.80234 12.2261 6.6988 12.3445 6.59884C12.4642 6.49771 12.48 6.42923 12.48 6.39991V5.07991C12.48 4.91422 12.6143 4.77991 12.78 4.77991Z" fill="white"/>
<path fill-rule="evenodd" clip-rule="evenodd" d="M6.61995 4.77991C6.78563 4.77991 6.91995 4.91422 6.91995 5.07991V6.01847L6.61995 6.01931L6.31995 6.0193V5.07991C6.31995 4.91422 6.45426 4.77991 6.61995 4.77991ZM6.61995 6.31931C6.45426 6.31931 6.31995 6.18498 6.31995 6.0193L6.61995 6.01931L6.91995 6.01847C6.91995 6.18416 6.78563 6.31931 6.61995 6.31931Z" fill="white"/>
<path fill-rule="evenodd" clip-rule="evenodd" d="M12.78 6.31995C12.9457 6.31995 13.08 6.45426 13.08 6.61995V7.93995C13.08 8.21436 12.9235 8.43526 12.7316 8.59736C12.5383 8.76062 12.2764 8.89411 11.979 9.00033C11.3815 9.21371 10.5758 9.33995 9.7 9.33995C9.21405 9.33995 8.75179 9.30111 8.33554 9.23082C8.17217 9.20323 8.0621 9.04842 8.08969 8.88505C8.11727 8.72168 8.27208 8.6116 8.43545 8.63919C8.81649 8.70354 9.24522 8.73995 9.7 8.73995C10.5257 8.73995 11.26 8.62 11.7772 8.43529C12.037 8.34247 12.2261 8.23894 12.3444 8.13898C12.4642 8.03786 12.48 7.96936 12.48 7.93995V6.61995C12.48 6.45426 12.6143 6.31995 12.78 6.31995Z" fill="white"/>
<path fill-rule="evenodd" clip-rule="evenodd" d="M12.78 7.85999C12.9457 7.85999 13.08 7.9943 13.08 8.15999V9.47999C13.08 9.7544 12.9235 9.9753 12.7316 10.1374C12.5383 10.3007 12.2763 10.4341 11.9789 10.5404C11.3815 10.7538 10.5758 10.88 9.69997 10.88C9.20721 10.88 8.73853 10.84 8.31782 10.7679C8.15452 10.7399 8.04484 10.5848 8.07285 10.4215C8.10085 10.2582 8.25594 10.1485 8.41924 10.1765C8.80417 10.2425 9.23881 10.28 9.69997 10.28C10.5256 10.28 11.2599 10.16 11.7771 9.97533C12.037 9.88251 12.2261 9.77898 12.3444 9.67902C12.4641 9.5779 12.48 9.5094 12.48 9.47999V8.15999C12.48 7.9943 12.6143 7.85999 12.78 7.85999Z" fill="white"/>
<path fill-rule="evenodd" clip-rule="evenodd" d="M2.65551 6.86096C2.53573 6.9621 2.51992 7.03059 2.51992 7.05991C2.51992 7.08924 2.53573 7.15772 2.65551 7.25887C2.7739 7.35883 2.963 7.46237 3.22293 7.55521C3.74018 7.73994 4.47448 7.85991 5.29992 7.85991C6.12536 7.85991 6.85966 7.73994 7.37691 7.55521C7.63684 7.46237 7.82594 7.35883 7.94433 7.25887C8.06412 7.15772 8.07992 7.08924 8.07992 7.05991C8.07992 7.03059 8.06412 6.9621 7.94433 6.86096C7.82594 6.76099 7.63684 6.65745 7.37691 6.56462C6.85966 6.37989 6.12536 6.25991 5.29992 6.25991C4.47448 6.25991 3.74018 6.37989 3.22293 6.56462C2.963 6.65745 2.7739 6.76099 2.65551 6.86096ZM3.02113 5.99957C3.61862 5.78618 4.42433 5.65991 5.29992 5.65991C6.17552 5.65991 6.98122 5.78618 7.57871 5.99957C7.87615 6.1058 8.1381 6.23929 8.33143 6.40253C8.52336 6.56459 8.67992 6.78548 8.67992 7.05991C8.67992 7.33434 8.52336 7.55524 8.33143 7.7173C8.1381 7.88054 7.87615 8.01402 7.57871 8.12025C6.98122 8.33364 6.17552 8.45991 5.29992 8.45991C4.42433 8.45991 3.61862 8.33364 3.02113 8.12025C2.72369 8.01402 2.46174 7.88054 2.26842 7.7173C2.07649 7.55524 1.91992 7.33434 1.91992 7.05991C1.91992 6.78548 2.07649 6.56459 2.26842 6.40253C2.46174 6.23929 2.72369 6.1058 3.02113 5.99957Z" fill="white"/>
<path fill-rule="evenodd" clip-rule="evenodd" d="M2.21992 6.97998C2.38561 6.97998 2.51992 7.1143 2.51992 7.27998V8.59998C2.51992 8.62939 2.53576 8.6979 2.65548 8.79901C2.77382 8.89897 2.96287 9.0025 3.22277 9.09532C3.73995 9.28003 4.47424 9.39998 5.29992 9.39998C6.1256 9.39998 6.85989 9.28003 7.37707 9.09532C7.63697 9.0025 7.82602 8.89897 7.94437 8.79901C8.06409 8.6979 8.07992 8.62939 8.07992 8.59998V7.27998C8.07992 7.1143 8.21424 6.97998 8.37992 6.97998C8.54561 6.97998 8.67992 7.1143 8.67992 7.27998V8.59998C8.67992 8.87439 8.52344 9.09529 8.33152 9.25739C8.13822 9.42065 7.8763 9.55414 7.57888 9.66037C6.98143 9.87375 6.17572 9.99998 5.29992 9.99998C4.42412 9.99998 3.61841 9.87375 3.02096 9.66037C2.72354 9.55414 2.46162 9.42065 2.26833 9.25739C2.0764 9.09529 1.91992 8.87439 1.91992 8.59998V7.27998C1.91992 7.1143 2.05424 6.97998 2.21992 6.97998Z" fill="white"/>
<path fill-rule="evenodd" clip-rule="evenodd" d="M2.21992 8.5199C2.38561 8.5199 2.51992 8.65421 2.51992 8.8199V10.1399C2.51992 10.1693 2.53576 10.2378 2.65548 10.3389C2.77382 10.4389 2.96287 10.5424 3.22277 10.6352C3.73995 10.82 4.47424 10.9399 5.29992 10.9399C6.1256 10.9399 6.85989 10.82 7.37707 10.6352C7.63697 10.5424 7.82602 10.4389 7.94437 10.3389C8.06409 10.2378 8.07992 10.1693 8.07992 10.1399V8.8199C8.07992 8.65421 8.21424 8.5199 8.37992 8.5199C8.54561 8.5199 8.67992 8.65421 8.67992 8.8199V10.1399C8.67992 10.4143 8.52344 10.6352 8.33152 10.7973C8.13822 10.9606 7.8763 11.0941 7.57888 11.2003C6.98143 11.4137 6.17572 11.5399 5.29992 11.5399C4.42412 11.5399 3.61841 11.4137 3.02096 11.2003C2.72354 11.0941 2.46162 10.9606 2.26833 10.7973C2.0764 10.6352 1.91992 10.4143 1.91992 10.1399V8.8199C1.91992 8.65421 2.05424 8.5199 2.21992 8.5199Z" fill="white"/>
<path fill-rule="evenodd" clip-rule="evenodd" d="M2.21992 10.0599C2.38561 10.0599 2.51992 10.1943 2.51992 10.3599V11.6799C2.51992 11.7093 2.53576 11.7779 2.65548 11.879C2.77382 11.9789 2.96287 12.0825 3.22277 12.1753C3.73995 12.36 4.47424 12.4799 5.29992 12.4799C6.1256 12.4799 6.85989 12.36 7.37707 12.1753C7.63697 12.0825 7.82602 11.9789 7.94437 11.879C8.06409 11.7779 8.07992 11.7093 8.07992 11.6799V10.3599C8.07992 10.1943 8.21424 10.0599 8.37992 10.0599C8.54561 10.0599 8.67992 10.1943 8.67992 10.3599V11.6799C8.67992 11.9543 8.52344 12.1753 8.33152 12.3374C8.13822 12.5006 7.8763 12.6341 7.57888 12.7403C6.98143 12.9537 6.17572 13.0799 5.29992 13.0799C4.42412 13.0799 3.61841 12.9537 3.02096 12.7403C2.72354 12.6341 2.46162 12.5006 2.26833 12.3374C2.0764 12.1753 1.91992 11.9543 1.91992 11.6799V10.3599C1.91992 10.1943 2.05424 10.0599 2.21992 10.0599Z" fill="white"/>
</svg>
